<?xml version="1.0" encoding="utf-8"?>
<!-- Generator: Adobe Illustrator 23.0.0, SVG Export Plug-In . SVG Version: 6.00 Build 0)  -->
<svg version="1.1" id="Calque_1" xmlns="http://www.w3.org/2000/svg" xmlns:xlink="http://www.w3.org/1999/xlink" x="0px" y="0px"
	 viewBox="0 0 24 24" style="enable-background:new 0 0 24 24;" xml:space="preserve">
<style type="text/css">
	.st0{fill:#020203;}
</style>
<path class="st0" d="M12,0.02C5.39,0.02,0.02,5.39,0.02,12S5.39,23.98,12,23.98S23.98,18.61,23.98,12S18.61,0.02,12,0.02z M12,1.06
	c6.05,0,10.94,4.89,10.94,10.94S18.05,22.94,12,22.94S1.06,18.05,1.06,12S5.95,1.06,12,1.06z M17.2,6.79
	c-0.17,0-0.33,0.09-0.43,0.23l-5.31,7.83l-3.8-3.52c-0.21-0.2-0.54-0.19-0.74,0.01c-0.2,0.21-0.19,0.54,0.01,0.74
	c0,0,0.01,0.01,0.01,0.01l4.69,4.35l6-8.84c0.16-0.24,0.11-0.56-0.13-0.73C17.42,6.82,17.31,6.78,17.2,6.79z"/>
</svg>
